<?xml version="1.0" encoding="utf-8"?>
<!-- Generator: Adobe Illustrator 22.0.1, SVG Export Plug-In . SVG Version: 6.00 Build 0)  -->
<svg version="1.1" id="Layer_1" xmlns="http://www.w3.org/2000/svg" xmlns:xlink="http://www.w3.org/1999/xlink" x="0px" y="0px"
	 viewBox="0 0 777.5 247" style="enable-background:new 0 0 777.5 247;" xml:space="preserve">
<style type="text/css">
	.st0{fill:#FFFFFF;}
	.st1{fill:#006838;}
	.st2{fill:#E6E7E8;}
	.st3{fill:#ED1C24;}
</style>
<g>
	<circle id="XMLID_20_" class="st0" cx="123" cy="123.5" r="88.7"/>
	<g id="XMLID_15_">
		<path id="XMLID_19_" d="M170.8,179.1l-4.5-19.1c-0.2-1-1.2-1.8-2.2-1.8H81.9c-1.1,0-2,0.7-2.2,1.8l-4.5,19.1
			c-0.3,0.8-0.6,3-0.6,3.3c0,11.5,21.7,20.8,48.4,20.8s48.4-9.3,48.4-20.8C171.4,182.2,171.1,179.9,170.8,179.1z"/>
		<path id="XMLID_18_" class="st1" d="M150,125.2H96c-0.8,0-1.5,0.5-1.7,1.3l-7.7,26.7c-0.2,0.8,0.4,1.7,1.3,1.7h70.2
			c0.9,0,1.6-0.9,1.3-1.8l-7.7-26.7C151.5,125.8,150.8,125.2,150,125.2z"/>
		<path id="XMLID_17_" class="st2" d="M138.1,98.1h-30.2c-0.7,0-1.3,0.4-1.5,1.1l-6.2,21.5c-0.2,0.7,0.3,1.3,1,1.3h43.4
			c0.7,0,1.2-0.7,1-1.4l-6.2-21.4C139.3,98.5,138.8,98.1,138.1,98.1z"/>
		<path id="XMLID_16_" class="st3" d="M130.6,55.1h-5.8c-0.6,0-1.2-0.5-1.2-1.2v-1.4c0-0.5,0.3-0.9,0.7-1.1l10.7-4.2
			c1-0.4,1-1.8,0-2.1l-12.6-5c-0.8-0.3-1.6,0.3-1.6,1.1v11.7l0,0V54c0,0.6-0.5,1.2-1.2,1.2h-4.4c-0.5,0-1,0.3-1.1,0.8l-10.8,37.4
			c-0.2,0.7,0.3,1.5,1.1,1.5h36.7c0.8,0,1.3-0.7,1.1-1.5L131.7,56C131.6,55.5,131.1,55.1,130.6,55.1z"/>
	</g>
</g>
<g>
	<g id="XMLID_58_">
		<g id="XMLID_60_">
			<path id="XMLID_81_" class="st0" d="M283.3,107.2h-32.9V53.8h10.1v44.9h22.7V107.2L283.3,107.2z"/>
			<path id="XMLID_78_" class="st0" d="M340.5,107.2h-10.1L322,85.1h-13.5v22.1H299V53.8h23.3c6.5,0,11.4,1.5,14.1,4.3
				c3.1,3.1,4.6,6.8,4.6,11.4c0,6.8-3.1,11.7-9.5,14.1L340.5,107.2z M308.2,77.4h12c3.4,0,6.1-0.6,7.7-2.2c1.8-1.5,2.5-3.4,2.5-6.1
				c0-2.5-0.9-4.3-2.5-5.8c-1.5-1.2-3.7-1.8-6.8-1.8h-12.9V77.4z"/>
			<path id="XMLID_76_" class="st0" d="M416.3,88.8l8.9,0.9c-0.6,5.2-2.8,9.8-6.1,13.2c-3.7,3.4-8.3,5.2-14.1,5.2
				c-4.9,0-8.9-1.2-12-3.7s-5.5-5.8-7.1-10.1c-1.5-4.3-2.5-8.9-2.5-13.8c0-8.3,1.8-14.7,5.8-20s9.2-7.7,16-7.7
				c5.2,0,9.8,1.5,13.2,4.9c3.4,3.4,5.8,8,6.8,14.1l-8.9,0.9c-1.5-8-5.2-12-11.1-12c-3.7,0-6.5,1.5-8.3,4.9
				c-2.2,3.4-3.1,8.3-3.1,14.7c0,6.5,0.9,11.4,3.1,14.7c2.2,3.4,4.9,4.9,8.6,4.9c2.8,0,5.2-1.2,7.4-3.4
				C415.1,94.6,416,91.9,416.3,88.8z"/>
			<path id="XMLID_73_" class="st0" d="M482.7,107.2h-10.4L468,94.3h-20.6l-4.3,12.9h-8.3l17.8-53.5h12L482.7,107.2z M465.5,86.6
				l-7.7-24l-8,24H465.5z"/>
			<path id="XMLID_70_" class="st0" d="M507,107.2h-9.5V53.8h21.8c6.1,0,10.8,1.5,13.8,4.6c3.1,3.1,4.6,6.8,4.6,11.1
				c0,4.9-1.5,8.9-4.9,12s-7.4,4.6-12.6,4.6h-13.5C507,86,507,107.2,507,107.2z M507,77.7h11.4c3.1,0,5.2-0.6,6.8-2.2
				c1.5-1.5,2.5-3.4,2.5-5.8c0-2.2-0.6-4-2.2-5.5c-1.5-1.5-4-2.5-8-2.5H507C507,61.7,507,77.7,507,77.7z"/>
			<path id="XMLID_68_" class="st0" d="M563.2,107.2h-9.5V53.8h9.5V107.2z"/>
			<path id="XMLID_66_" class="st0" d="M601.6,107.2h-10.4V62.1H577v-8.3h39v8.3h-14.1L601.6,107.2L601.6,107.2z"/>
			<path id="XMLID_63_" class="st0" d="M667.7,107.2h-10.4l-4.3-12.9h-20.6l-4.3,12.9h-8.3l17.8-53.5h12L667.7,107.2z M650.5,86.6
				l-7.7-24l-7.7,24H650.5z"/>
			<path id="XMLID_61_" class="st0" d="M715.3,107.2h-32.9V53.8h10.1v44.9h22.7V107.2L715.3,107.2z"/>
		</g>
	</g>
	<g id="XMLID_1_">
		<g id="XMLID_2_">
			<path id="XMLID_35_" class="st0" d="M262.7,193.2h-12.3v-63.6h28c8,0,13.8,1.8,17.5,5.5c3.7,3.7,5.8,8.3,5.8,13.2
				c0,5.8-2.2,10.4-6.1,14.1c-4.3,3.7-9.5,5.5-15.7,5.5h-17.2V193.2z M262.7,158.2h14.4c3.7,0,6.8-0.9,8.6-2.5
				c1.8-1.8,3.1-4,3.1-7.1c0-2.5-0.9-4.9-2.8-6.8s-5.2-2.8-9.8-2.8h-13.5V158.2z"/>
			<path id="XMLID_32_" class="st0" d="M370.6,193.2h-13.2l-5.5-15.4h-26.1l-5.2,15.1H310l22.4-63.3h15.1L370.6,193.2z M348.8,169
				l-9.8-28.3l-9.8,28.3H348.8z"/>
			<path id="XMLID_30_" class="st0" d="M424.6,171.1l11.4,1.2c-0.6,6.5-3.4,11.7-8,15.7s-10.4,6.1-17.8,6.1
				c-6.1,0-11.4-1.5-15.1-4.3c-3.7-2.8-6.8-6.8-8.9-12c-2.2-5.2-3.1-10.4-3.1-16.6c0-9.8,2.5-17.5,7.4-23.7
				c4.9-6.1,11.7-9.2,20.3-9.2c6.8,0,12.3,1.8,16.9,5.8c4.6,4,7.4,9.5,8.6,16.6l-11.4,1.2c-2.2-9.5-6.8-14.4-13.8-14.4
				c-4.6,0-8,1.8-10.8,5.8c-2.5,4-3.7,9.8-3.7,17.2c0,7.7,1.2,13.5,4,17.5c2.8,4,6.5,5.8,10.8,5.8c3.7,0,6.8-1.2,9.2-4
				C422.8,177.9,424.3,174.8,424.6,171.1z"/>
			<path id="XMLID_27_" class="st0" d="M475,113.7l3.4,4.9l-20.9,5.8l-2.2-3.7L475,113.7z M468,193.2h-12.3v-63.6H468V193.2z"/>
			<path id="XMLID_25_" class="st0" d="M505.8,193.2h-12.6v-63.6h43v9.8h-30.4V157h24v9.5h-24V193.2L505.8,193.2z"/>
			<path id="XMLID_23_" class="st0" d="M567.2,193.2h-12.3v-63.6h12.3V193.2z"/>
			<path id="XMLID_21_" class="st0" d="M630.2,171.1l11.4,1.2c-0.6,6.5-3.4,11.7-8,15.7c-4.6,4-10.4,6.1-17.8,6.1
				c-6.1,0-11.4-1.5-15.1-4.3c-3.7-2.8-6.8-6.8-8.9-12c-2.2-4.9-3.1-10.4-3.1-16.6c0-9.8,2.5-17.5,7.4-23.7
				c4.9-6.1,11.7-9.2,20.3-9.2c6.8,0,12.3,1.8,16.9,5.8c4.6,4,7.4,9.5,8.6,16.6l-11.4,1.2c-2.2-9.5-6.8-14.4-13.8-14.4
				c-4.6,0-8,1.8-10.8,5.8c-2.5,4-3.7,9.8-3.7,17.2c0,7.7,1.2,13.5,4,17.5c2.8,4,6.5,5.8,10.8,5.8c3.7,0,6.8-1.2,9.2-4
				C628.6,177.9,629.9,174.8,630.2,171.1z"/>
			<path id="XMLID_3_" class="st0" d="M686.7,194.2c-8.9,0-16-3.1-21.2-9.5c-4.9-6.5-7.7-14.1-7.7-23.3c0-9.2,2.8-16.9,8-23.3
				c5.2-6.1,12.3-9.2,21.2-9.2c8.9,0,15.7,3.1,20.9,9.2c5.2,6.1,7.7,14.1,7.7,23.3c0,9.8-2.8,17.8-8,23.7
				C702.4,191.1,695.3,194.2,686.7,194.2z M686.7,184.9c4.3,0,8-1.8,11.1-5.2c3.1-3.4,4.6-9.5,4.6-18.4c0-7.4-1.2-12.9-3.7-17.2
				s-6.5-6.1-11.7-6.1c-10.4,0-15.7,8-15.7,23.7c0,7.7,1.2,13.5,4,17.5C677.8,182.8,681.8,184.9,686.7,184.9z"/>
		</g>
	</g>
</g>
</svg>
