<?xml version="1.0" encoding="utf-8"?>
<!-- Generator: Adobe Illustrator 22.0.1, SVG Export Plug-In . SVG Version: 6.00 Build 0)  -->
<svg version="1.1" id="Capa_1" xmlns="http://www.w3.org/2000/svg" xmlns:xlink="http://www.w3.org/1999/xlink" x="0px" y="0px"
	 viewBox="0 0 496 496" style="enable-background:new 0 0 496 496;" xml:space="preserve">
<style type="text/css">
	.st0{fill:#FFFFFF;}
</style>
<g>
	<g>
		<g>
			<path class="st0" d="M264,208c44.1,0,80-35.9,80-80s-35.9-80-80-80s-80,35.9-80,80S219.9,208,264,208z M264,64
				c35.3,0,64,28.7,64,64s-28.7,64-64,64s-64-28.7-64-64S228.7,64,264,64z"/>
			<path class="st0" d="M264,96V80c-22.7,0-42.5,16.2-47,38.4l15.7,3.2C235.6,106.8,248.8,96,264,96z"/>
			<path class="st0" d="M238.4,147.2c-2.9-3.8-4.8-8.1-5.8-12.8l-15.7,3.2c1.4,6.9,4.4,13.6,8.6,19.2L238.4,147.2z"/>
			<path class="st0" d="M468.7,328l-40,40H360v-16h20.3l35.7-53.6V264h-43.9l-21.5-30l20.7-31.8c13.5-20.8,20.7-44.9,20.7-69.8V128
				C392,57.4,334.6,0,264,0S136,57.4,136,128v4.4c0,20.9,5.1,41.2,14.8,59.6h-28.7l-72-40H0v57.9l16,32v48.5l16,24v24L51.1,367
				l28.9,7.2v11.6L99.1,424H136v-58.4l-64-96v-18.3l7.6-7.6L184,363v50.2l151.6,67.4l23.5-7.8l38.7,23.3H440v-25.9l-8-16V440h48
				v-22.1l16-32V328H468.7z M152,128c0-61.8,50.2-112,112-112s112,50.2,112,112v4.4c0,21.7-6.3,42.8-18.1,61L282,310.2
				c-4,6.1-10.7,9.8-18,9.8s-14-3.7-18-9.8l-75.9-116.8c-11.8-18.2-18.1-39.3-18.1-61V128z M480,382.1l-16,32v9.9h-48v33.9l8,16v6.1
				h-21.8L361,455.2l-24.5,8.2L200,402.8V357L80.4,220.3L56,244.7v29.7l64,96V408h-11.1L96,382.1v-20.4L60.9,353L48,333.6v-24
				l-16-24v-47.5l-16-32V168h29.9l72,40h42.5l72.1,110.9c6.9,10.7,18.7,17.1,31.4,17.1c12.7,0,24.5-6.4,31.4-17.1l45.9-70.6
				l22.6,31.6H400v13.6L371.7,336H344v48h91.3l40-40h4.7V382.1z"/>
		</g>
	</g>
</g>
</svg>
