<?xml version="1.0" encoding="utf-8"?>
<!-- Generator: Adobe Illustrator 22.1.0, SVG Export Plug-In . SVG Version: 6.00 Build 0)  -->
<svg version="1.1" id="Layer_1" xmlns="http://www.w3.org/2000/svg" xmlns:xlink="http://www.w3.org/1999/xlink" x="0px" y="0px"
	 viewBox="0 0 496 496" style="enable-background:new 0 0 496 496;" xml:space="preserve">
<style type="text/css">
	.st0{fill:#FFFFFF;}
</style>
<g>
	<g>
		<g>
			<path class="st0" d="M416,248V116.7L299.3,0H0v496h416v-96h80V248H416z M304,27.3l84.7,84.7H304V27.3z M400,480H16V16h272v112
				h112v120h-16v16h-5.3l-28.4-21.3L328,198.1V144h-45.4L264,190.5V216l5.8,24h-84.3l-9.6,48.2l10.5,42.1L160,352.6V336H32v128h128
				v-90.4l30.7-25.9l1.6,6.3l18.8,38.1h152.3l8-8H384v16h16V480z M280,215v-21.5l13.4-33.5H312v41.9l25.7,51.4l35.6,26.7H384v88
				h-19.3l-8,8H220.9l-13.4-26.8l-15.4-61.4l6.4-31.8h91.7L280,215z M75.7,432h15.2l53.1-44.9V448H48v-96h96v14.1L85.1,416h-0.8
				l-13.6-20.4l-13.3,8.9L75.7,432z M480,384h-80V264h80V384z"/>
			<path class="st0" d="M160,69.6l37.2-31.4L186.9,26L160,48.6V32H32v128h128V69.6z M144,62.1L85.1,112h-0.8L70.7,91.6l-13.3,8.9
				L75.7,128h15.2L144,83.1V144H48V48h96V62.1z"/>
			<path class="st0" d="M160,221.6l37.2-31.4L186.9,178L160,200.6V184H32v128h128V221.6z M144,214.1L85.1,264h-0.8l-13.6-20.4
				l-13.3,8.9L75.7,280h15.2l53.1-44.9V296H48v-96h96V214.1z"/>
		</g>
	</g>
</g>
</svg>
