<?xml version="1.0" encoding="iso-8859-1"?>
<!-- Generator: Adobe Illustrator 19.0.0, SVG Export Plug-In . SVG Version: 6.00 Build 0)  -->
<svg version="1.1" id="Layer_1" xmlns="http://www.w3.org/2000/svg" xmlns:xlink="http://www.w3.org/1999/xlink" x="0px" y="0px"
	 viewBox="0 0 488 488" style="enable-background:new 0 0 488 488;" xml:space="preserve">
<g>
	<g>
		<g>
			<path d="M208,120c-48.52,0-88,39.48-88,88s39.48,88,88,88s88-39.48,88-88C296,159.48,256.52,120,208,120z M232,275.8
				c-7.52,2.672-15.576,4.2-24,4.2s-16.48-1.528-24-4.2V256c0-13.232,10.768-24,24-24s24,10.768,24,24V275.8z M248,267.824V256
				c0-22.056-17.944-40-40-40c-22.056,0-40,17.944-40,40v11.824c-19.28-12.936-32-34.92-32-59.824c0-39.704,32.296-72,72-72
				s72,32.296,72,72C280,232.912,267.28,254.896,248,267.824z"/>
			<path d="M240,184c0-17.648-14.352-32-32-32s-32,14.352-32,32s14.352,32,32,32S240,201.648,240,184z M208,200
				c-8.824,0-16-7.176-16-16c0-8.824,7.176-16,16-16c8.824,0,16,7.176,16,16C224,192.824,216.824,200,208,200z"/>
			<path d="M443.312,432l-16-16H456v-16h-44.688l-50.784-50.784C394.92,312.104,416,262.48,416,208C416,93.304,322.696,0,208,0
				S0,93.304,0,208s93.304,208,208,208c54.48,0,104.104-21.08,141.216-55.464L400,411.312V456h16v-28.688l16,16V488h16v-40h40v-16
				H443.312z M332.128,320.816C359.28,290.96,376,251.44,376,208c0-92.632-75.368-168-168-168S40,115.368,40,208s75.368,168,168,168
				c43.44,0,82.96-16.72,112.808-43.872l17.096,17.096C303.696,380.72,258.064,400,208,400c-105.864,0-192-86.136-192-192
				S102.136,16,208,16s192,86.136,192,192c0,50.064-19.28,95.696-50.776,129.912L332.128,320.816z M307.76,288H328v-16h-9.32
				c10.944-18.856,17.32-40.672,17.32-64c0-70.576-57.424-128-128-128S80,137.424,80,208s57.424,128,128,128
				c23.328,0,45.144-6.376,64-17.32V328h16v-20.24c1.56-1.256,3.04-2.584,4.544-3.904l16.96,16.96
				C282.56,345.088,247.032,360,208,360c-83.816,0-152-68.184-152-152S124.184,56,208,56s152,68.184,152,152
				c0,39.032-14.912,74.56-39.184,101.504l-16.96-16.96C305.176,291.048,306.512,289.56,307.76,288z M299.784,272H272v27.784
				C253.84,312.488,231.792,320,208,320c-61.76,0-112-50.24-112-112S146.24,96,208,96s112,50.24,112,112
				C320,231.792,312.488,253.84,299.784,272z"/>
		</g>
	</g>
</g>
<g>
</g>
<g>
</g>
<g>
</g>
<g>
</g>
<g>
</g>
<g>
</g>
<g>
</g>
<g>
</g>
<g>
</g>
<g>
</g>
<g>
</g>
<g>
</g>
<g>
</g>
<g>
</g>
<g>
</g>
</svg>
